<svg xmlns="http://www.w3.org/2000/svg" width="146.848" height="31.124" viewBox="0 0 146.848 31.124"><defs><style>.a{fill:#fff;}.b{fill:#f67801;}</style></defs><g transform="translate(73.424 15.562)"><g transform="translate(-73.424 -15.562)"><g transform="translate(0.052)"><path class="a" d="M14.638,19.012H.1V.8H14.27V5.1H5.138V7.728h8.607v4.2H5.138v2.782h9.5Z" transform="translate(-0.1 -0.38)"/><path class="a" d="M83.638,5.506a6.823,6.823,0,0,0-4.251-1.26c-1.26,0-2.467.367-2.467,1.365s1.207,1.417,2.992,1.627c3.621.367,7.4,1.837,7.4,6.036s-3.884,5.878-7.977,5.931c-3.254,0-5.616-.525-8.135-3.2l2.834-3.254A7.3,7.3,0,0,0,79.387,14.8c1.679,0,2.834-.577,2.834-1.627s-1.05-1.47-3.044-1.679c-3.989-.367-7.4-1.365-7.4-5.878S75.556.1,79.387.1A10.413,10.413,0,0,1,86.21,2.252Z" transform="translate(-33.884 -0.047)"/><path class="a" d="M108.8,5.151h-5.3V.9h15.745V5.151h-5.353V19.112h-5.143Z" transform="translate(-49.232 -0.427)"/><path class="a" d="M146.042.8c3.621,0,6.613,1.627,6.613,5.091a3.552,3.552,0,0,1-1.994,3.516,4.776,4.776,0,0,1,2.519,4.251c0,4.094-3.726,5.3-7.033,5.353H136.7V.8Zm-4.251,6.928h4.094c1.05,0,1.627-.525,1.627-1.365a1.417,1.417,0,0,0-1.574-1.417h-4.146Zm0,7.243h4.356c1.312,0,1.942-.682,1.942-1.732s-.63-1.732-1.942-1.732h-4.356Z" transform="translate(-65.008 -0.38)"/><path class="a" d="M223.224,10.772c-.1-2.2-.1-2.992-.157-3.726V.8h5.2V19.012h-4.356L216.3,9.2v9.814h-5.2V.8h4.356Z" transform="translate(-100.361 -0.38)"/><path class="a" d="M264.166,16.269a9.919,9.919,0,0,1-7.3,2.834c-7.138,0-9.919-4.514-9.972-9.447S250.048,0,256.871,0A9.762,9.762,0,0,1,263.9,2.886l-3.149,3.1a5.353,5.353,0,0,0-3.884-1.574c-3.516,0-4.881,2.834-4.881,5.248s1.26,5.038,4.881,5.038a6.3,6.3,0,0,0,4.3-1.837Z" transform="translate(-117.371 0.001)"/><path class="a" d="M187.388.8h0l-2.309,5.773,2.047,5.091h-4.094L181.3,16.02h7.558l1.207,2.992h5.511Z" transform="translate(-86.2 -0.38)"/><path class="b" d="M180.306.8h-4.671L167.5,19.012h5.458Z" transform="translate(-79.643 -0.38)"/><path class="a" d="M48.472.8H43.8l4.356,10.864H42.384L40.6,16.02h9.29L51.1,19.012h5.511Z" transform="translate(-19.344 -0.38)"/><path class="a" d="M42.906.8H38.235L30.1,19.012h5.458Z" transform="translate(-14.355 -0.38)"/></g><g transform="translate(0 23.985)"><path class="b" d="M2.2,47.145H0V46.2H5.511v.945h-2.2v5.773H2.2Z" transform="translate(0 -45.937)"/><path class="b" d="M29.486,52.918H24.5V46.2h4.986v1.05H25.6v1.837h3.726v1H25.6v1.784h3.884Z" transform="translate(-11.642 -45.937)"/><path class="b" d="M53.985,51.98a3.516,3.516,0,0,1-2.519,1A3.3,3.3,0,0,1,47.9,49.513,3.359,3.359,0,0,1,51.413,46a3.464,3.464,0,0,1,2.467,1l-.682.682a2.467,2.467,0,0,0-1.732-.682A2.362,2.362,0,0,0,49,49.513a2.309,2.309,0,0,0,2.467,2.467,2.624,2.624,0,0,0,1.732-.735Z" transform="translate(-22.757 -45.839)"/><path class="b" d="M78.319,52.918V50.136H74.75v2.782H73.7V46.2h1.1v2.939h3.569V46.2h1.05v6.718Z" transform="translate(-35.02 -45.937)"/><path class="b" d="M104.571,50.976V46.2h1.1v6.718h-.84L101,48.194v4.723H99.9V46.2h.84Z" transform="translate(-47.469 -45.937)"/><path class="b" d="M132.224,49.515a3.464,3.464,0,0,1-6.928,0A3.359,3.359,0,0,1,128.76,46,3.285,3.285,0,0,1,132.224,49.515Zm-3.464,2.519a2.252,2.252,0,0,0,2.362-2.467A2.392,2.392,0,0,0,128.76,47a2.279,2.279,0,0,0-2.414,2.572,2.185,2.185,0,0,0,2.414,2.414Z" transform="translate(-59.535 -45.841)"/><path class="b" d="M154.15,46.2v5.721h3.569v1H153.1V46.2Z" transform="translate(-72.748 -45.937)"/><path class="b" d="M181.724,49.515a3.464,3.464,0,1,1-6.928,0A3.359,3.359,0,0,1,178.26,46,3.314,3.314,0,0,1,181.724,49.515Zm-3.464,2.519a2.252,2.252,0,0,0,2.362-2.467A2.392,2.392,0,0,0,178.26,47a2.279,2.279,0,0,0-2.414,2.572,2.161,2.161,0,0,0,2.414,2.414Z" transform="translate(-83.056 -45.841)"/><path class="b" d="M207.106,47.484a2.677,2.677,0,0,0-1.837-.735,2.414,2.414,0,0,0-2.467,2.624,2.309,2.309,0,0,0,2.467,2.414,2.414,2.414,0,0,0,1.627-.577V49.846h-1.889V48.9h2.887V51.63a3.411,3.411,0,0,1-2.624,1.155,3.275,3.275,0,0,1-3.569-3.464,3.483,3.483,0,0,1,3.569-3.621,3.569,3.569,0,0,1,2.519,1Z" transform="translate(-95.841 -45.699)"/><path class="b" d="M228.3,52.918V46.2h1.05v6.718Z" transform="translate(-108.481 -45.937)"/><path class="b" d="M250.686,52.918H245.7V46.2h4.933v1.05H246.75v1.837h3.726v1H246.75v1.784h3.884Z" transform="translate(-116.749 -45.937)"/><path class="b" d="M273.466,47.527a2.047,2.047,0,0,0-1.679-.735c-.892,0-1.575.367-1.575,1s.735.84,1.627.945,2.729.577,2.729,2.1-1.365,2.1-2.782,2.1a2.893,2.893,0,0,1-2.887-1.522l.787-.525a2.309,2.309,0,0,0,2.1,1.1c.787,0,1.679-.262,1.679-1.1s-.787-1-1.732-1.1-2.624-.525-2.624-1.942,1.365-1.942,2.624-1.942,1.942.21,2.519,1.155Z" transform="translate(-127.773 -45.795)"/></g></g></g></svg>